<svg id="Layer_1" data-name="Layer 1" xmlns="http://www.w3.org/2000/svg" viewBox="50 200 700 240"><defs><style>.cls-1{fill:#1d2954;}</style></defs><polygon class="cls-1" points="71.41 384.35 71.41 415.42 75.66 415.42 75.66 401.76 88.96 401.76 88.96 398.21 75.66 398.21 75.66 387.9 92.61 387.9 92.61 384.35 71.41 384.35"/><path class="cls-1" d="M152.82,387.41c-6.7,0-11,4.89-11,12.48s4.34,12.47,11,12.47,11-4.88,11-12.47-4.29-12.48-11-12.48m0,28.6c-9.07,0-15.43-6.56-15.43-16.12s6.36-16.13,15.43-16.13,15.44,6.56,15.44,16.13S161.85,416,152.82,416"/><path class="cls-1" d="M215.8,403.54V384.36H220v19.23c0,5.91,2.91,8.82,8.33,8.82s8.43-2.91,8.43-8.78V384.36H241v19.18c0,9.07-5.62,12.47-12.63,12.47s-12.57-3.4-12.57-12.47"/><polyline class="cls-1" points="293.96 415.42 293.96 390.47 312 415.42 315.4 415.42 315.4 384.35 311.42 384.35 311.42 408.12 294.4 384.35 289.96 384.35 289.96 415.42"/><path class="cls-1" d="M375.82,411.92c7.58,0,11.73-4.49,11.73-12s-4.15-12-11.73-12h-6.71v24.07Zm-11-27.57h11.24c9.76,0,15.92,5.82,15.92,15.54s-6.16,15.53-15.92,15.53H364.82Z"/><path class="cls-1" d="M450.77,389.09h.2l5.67,13.8H445.2Zm-2.07-4.74L436,415.42h4.19l3.64-9.13H458l3.74,9.13h4.54l-12.92-31.07Z"/><polygon class="cls-1" points="507.53 384.35 507.53 387.9 518.82 387.9 518.82 415.42 523.06 415.42 523.06 387.9 534.55 387.9 534.55 384.35 507.53 384.35"/><rect class="cls-1" x="581.99" y="384.35" width="4.29" height="31.06"/><path class="cls-1" d="M649.69,387.41c-6.7,0-11,4.89-11,12.48s4.34,12.47,11,12.47,11-4.88,11-12.47-4.29-12.48-11-12.48m0,28.6c-9.07,0-15.43-6.56-15.43-16.12s6.36-16.13,15.43-16.13,15.44,6.56,15.44,16.13S658.72,416,649.69,416"/><polygon class="cls-1" points="734.51 384.35 734.51 408.12 717.5 384.35 713.06 384.35 713.06 415.42 717.05 415.42 717.05 390.47 735.1 415.42 738.5 415.42 738.5 384.35 734.51 384.35"/><path class="cls-1" d="M85.64,305.77c1,20.42,15.84,29.59,34.18,29.59,16.25,0,26.68-6.46,26.68-17.51,0-10-7.92-13.75-21.68-16.46l-25-4.58c-20.43-3.76-34.6-15-34.6-36.69,0-24.59,19.38-40.44,50-40.44,34.4,0,53.78,17.72,54.19,46.9l-24,.83c-.83-17.92-12.5-27.3-30.43-27.3-15.42,0-24.17,6.88-24.17,18.13,0,9.59,6.88,12.93,18.76,15.22l24.17,4.38c25.85,4.79,37.94,17.09,37.94,38.34,0,25.85-22.31,39.82-51.9,39.82-33.77,0-58.15-17.51-58.15-49.19Z"/><rect class="cls-1" x="184.83" y="222.19" width="26.05" height="131.31"/><path class="cls-1" d="M662.17,305.77c1,20.42,15.84,29.59,34.18,29.59,16.26,0,26.68-6.46,26.68-17.51,0-10-7.93-13.75-21.68-16.46l-25-4.58c-20.42-3.76-34.6-15-34.6-36.69,0-24.59,19.39-40.44,50-40.44,34.4,0,53.78,17.72,54.2,46.9l-24,.83c-.83-17.92-12.5-27.3-30.42-27.3-15.43,0-24.18,6.88-24.18,18.13,0,9.59,6.88,12.93,18.76,15.22l24.18,4.38c25.83,4.79,37.93,17.09,37.93,38.34C748.25,342,726,356,696.35,356c-33.77,0-58.16-17.51-58.16-49.19Z"/><path class="cls-1" d="M390,353.5a82.54,82.54,0,0,1,0-131.31H326.54l-27.31,95.46h-.63l-28.76-95.46H228.78V353.5H253V250.12h.83l32.1,103.38h22.3l31.48-103.38h.83V353.5Z"/><path class="cls-1" d="M603.41,222.19v87.54L541.3,222.19H490.08a82.53,82.53,0,0,1,0,131.3h49.55V261l67.12,92.54h20.84V222.19Z"/><polygon class="cls-1" points="71.41 384.35 71.41 415.42 75.66 415.42 75.66 401.76 88.96 401.76 88.96 398.21 75.66 398.21 75.66 387.9 92.61 387.9 92.61 384.35 71.41 384.35"/><path class="cls-1" d="M152.82,387.41c-6.7,0-11,4.89-11,12.48s4.34,12.47,11,12.47,11-4.88,11-12.47-4.29-12.48-11-12.48m0,28.6c-9.07,0-15.43-6.56-15.43-16.12s6.36-16.13,15.43-16.13,15.44,6.56,15.44,16.13S161.85,416,152.82,416"/><path class="cls-1" d="M215.8,403.54V384.36H220v19.23c0,5.91,2.91,8.82,8.33,8.82s8.43-2.91,8.43-8.78V384.36H241v19.18c0,9.07-5.62,12.47-12.63,12.47s-12.57-3.4-12.57-12.47"/><polyline class="cls-1" points="293.96 415.42 293.96 390.47 312 415.42 315.4 415.42 315.4 384.35 311.42 384.35 311.42 408.12 294.4 384.35 289.96 384.35 289.96 415.42"/><path class="cls-1" d="M375.82,411.92c7.58,0,11.73-4.49,11.73-12s-4.15-12-11.73-12h-6.71v24.07Zm-11-27.57h11.24c9.76,0,15.92,5.82,15.92,15.54s-6.16,15.53-15.92,15.53H364.82Z"/><path class="cls-1" d="M450.77,389.09h.2l5.67,13.8H445.2Zm-2.07-4.74L436,415.42h4.19l3.64-9.13H458l3.74,9.13h4.54l-12.92-31.07Z"/><polygon class="cls-1" points="507.53 384.35 507.53 387.9 518.82 387.9 518.82 415.42 523.06 415.42 523.06 387.9 534.55 387.9 534.55 384.35 507.53 384.35"/><rect class="cls-1" x="581.99" y="384.35" width="4.29" height="31.06"/><path class="cls-1" d="M649.69,387.41c-6.7,0-11,4.89-11,12.48s4.34,12.47,11,12.47,11-4.88,11-12.47-4.29-12.48-11-12.48m0,28.6c-9.07,0-15.43-6.56-15.43-16.12s6.36-16.13,15.43-16.13,15.44,6.56,15.44,16.13S658.72,416,649.69,416"/><polygon class="cls-1" points="734.51 384.35 734.51 408.12 717.5 384.35 713.06 384.35 713.06 415.42 717.05 415.42 717.05 390.47 735.1 415.42 738.5 415.42 738.5 384.35 734.51 384.35"/><path class="cls-1" d="M85.64,305.77c1,20.42,15.84,29.59,34.18,29.59,16.25,0,26.68-6.46,26.68-17.51,0-10-7.92-13.75-21.68-16.46l-25-4.58c-20.43-3.76-34.6-15-34.6-36.69,0-24.59,19.38-40.44,50-40.44,34.4,0,53.78,17.72,54.19,46.9l-24,.83c-.83-17.92-12.5-27.3-30.43-27.3-15.42,0-24.17,6.88-24.17,18.13,0,9.59,6.88,12.93,18.76,15.22l24.17,4.38c25.85,4.79,37.94,17.09,37.94,38.34,0,25.85-22.31,39.82-51.9,39.82-33.77,0-58.15-17.51-58.15-49.19Z"/><rect class="cls-1" x="184.83" y="222.19" width="26.05" height="131.31"/><path class="cls-1" d="M662.17,305.77c1,20.42,15.84,29.59,34.18,29.59,16.26,0,26.68-6.46,26.68-17.51,0-10-7.93-13.75-21.68-16.46l-25-4.58c-20.42-3.76-34.6-15-34.6-36.69,0-24.59,19.39-40.44,50-40.44,34.4,0,53.78,17.72,54.2,46.9l-24,.83c-.83-17.92-12.5-27.3-30.42-27.3-15.43,0-24.18,6.88-24.18,18.13,0,9.59,6.88,12.93,18.76,15.22l24.18,4.38c25.83,4.79,37.93,17.09,37.93,38.34C748.25,342,726,356,696.35,356c-33.77,0-58.16-17.51-58.16-49.19Z"/><path class="cls-1" d="M390,353.5a82.54,82.54,0,0,1,0-131.31H326.54l-27.31,95.46h-.63l-28.76-95.46H228.78V353.5H253V250.12h.83l32.1,103.38h22.3l31.48-103.38h.83V353.5Z"/><path class="cls-1" d="M603.41,222.19v87.54L541.3,222.19H490.08a82.53,82.53,0,0,1,0,131.3h49.55V261l67.12,92.54h20.84V222.19Z"/></svg>
